<svg xmlns="http://www.w3.org/2000/svg" width="32" height="32" viewBox="0 0 32 32"><g transform="translate(234 -1275.362)"><circle cx="17" cy="16" r="13" fill="#34485c" transform="translate(-235 1275.362)"/><path fill="#60c5b8" d="m -211.75,1279.956 c -1.53258,0.049 -3.01422,0.8788 -3.3125,0.8125 -0.36492,-0.081 -2.13237,0.2255 -2.78125,0.4687 -0.64888,0.2436 -0.58778,0.5531 -0.75,0.5938 -0.16254,0.041 -0.24892,0.1848 -0.5,0.4687 -0.25139,0.2837 0.125,0.625 0.125,0.625 0,0 0.96278,0.2166 1.125,-0.5 0.0958,-0.4259 -0.0411,0.3633 0,0.6875 0.0405,0.3245 0.64463,0.4054 0.96875,0 0.14609,-0.1825 0.12578,-0.629 0.21875,-0.7812 0.11447,-0.1859 0.36624,-0.043 0.5,-0.062 0.0806,-0.01 -0.10339,0.1264 0,0.1875 0.20712,0.1223 0.63371,-0.087 0.53125,0.4062 -0.0411,0.1985 -0.66905,0.2384 -0.75,0.5313 -0.0816,0.2929 -0.21875,0.4687 -0.21875,0.4687 l -1.34375,0.031 -0.4375,-0.625 c 0,0 -0.42634,0.1845 -0.3125,0.5625 0.0781,0.2607 -0.125,0.5625 -0.125,0.5625 0,0 -0.6875,0.1099 -0.6875,0.3125 0,0.1113 -0.28034,0.1252 -0.4375,0.1875 -0.12902,0.051 -0.21631,0.2631 -0.34375,0.2812 -0.0762,0.01 -0.55095,0.079 -0.65625,0.094 -0.28523,0.035 -0.15625,0.1002 -0.15625,0.2187 0,0.1621 0.53125,0.1875 0.53125,0.1875 0,0 0.34018,0.1319 0.21875,0.375 -0.12174,0.2436 0.0869,0.3438 -0.15625,0.3438 -0.10562,0 -0.35026,-0.033 -0.59375,-0.031 -0.31495,0 -0.61773,-0.099 -0.625,0.031 -0.03,0.5006 -0.0312,1.2187 -0.0312,1.2187 0,0 0.42667,0.2108 0.65625,0.1563 0.31812,-0.074 0.7837,0.175 1,-0.4063 0.0168,-0.045 0.028,-0.142 0.0625,-0.1875 0.15052,-0.1973 0.31332,-0.595 0.5625,-0.7187 0.15305,-0.077 0.3654,-0.027 0.4375,-0.031 0.16191,-0.01 0.4375,-0.2187 0.4375,-0.2187 0,0 0.71747,0.097 0.90625,0.8125 0.056,0.211 0.003,0.5578 0.125,0.625 0.074,0.041 0.40625,-0.3125 0.40625,-0.3125 l 0.375,0.031 -0.21875,-0.5 -0.6875,-0.7812 0.125,-0.062 c 0,0 0.52139,0.035 0.5625,0.1562 0.0402,0.1218 0.66843,0.4299 0.5625,0.7813 -0.17582,0.5813 0.25,0.7187 0.25,0.7187 0,0 0.36935,0.087 0.53125,-0.2187 0.14072,-0.2666 0.15625,-0.5 0.15625,-0.5 l 0.46875,-0.094 c 0,0 -0.0448,-0.9731 0.46875,-1 0.51354,-0.026 0.5625,0 0.5625,0 0,0 1.12794,0.3726 1.25,0.6563 0.12111,0.2836 0.1771,0.5533 -0.1875,0.5937 -0.36492,0.041 -0.90625,-0.031 -0.90625,-0.031 0,0 -1.43424,-0.2175 -1.3125,0.1875 0.12143,0.4055 0.25,0.8125 0.25,0.8125 0,0 0.31168,-0.031 0.59375,0.031 0.30136,0.069 0.6875,0.031 0.6875,0.031 l 0.0625,0.6875 -0.1875,0.062 c -0.20428,0.057 -0.80653,0.096 -0.96875,0.1562 -0.16222,0.06 -1.92827,-0.2482 -1.96875,-0.1875 -0.0405,0.06 -0.61337,0.2682 -0.9375,0.1875 -0.32444,-0.081 -0.40625,-0.8437 -0.40625,-0.8437 0,0 -0.0583,-0.3638 -0.28125,-0.3438 -0.22325,0.02 -1.75,0.1563 -1.75,0.1563 0,0 -0.5,0.2227 -0.5,0.3437 0,0 -0.14137,-0.1016 -0.34375,0 -0.2027,0.1018 -0.51248,0.088 -0.59375,0.25 -0.081,0.1625 -0.40028,0.466 -0.5625,0.75 -0.1619,0.2834 -0.62794,0.3055 -0.75,0.8125 -0.12174,0.5066 -0.20774,1.3538 -0.1875,1.7188 0.0202,0.3649 0.0104,1.2701 0.375,1.4687 0.36492,0.1992 0.84879,0.6918 1.03125,0.875 0.18214,0.1821 1.15951,0.3309 1.28125,0.25 0.12143,-0.081 0.55831,-0.25 0.78125,-0.25 0.22325,0 0.70208,0.035 0.84375,0.1563 0.14167,0.1218 0.31544,0.3833 0.4375,0.6875 0.12111,0.304 0.24256,0.8172 0.34375,1 0.10151,0.1824 0.48605,0.5301 0.34375,0.875 -0.14167,0.3448 -0.38423,0.6883 -0.34375,1.0937 0.0405,0.405 0.2833,0.9426 0.375,1.125 0.0923,0.182 0.6768,0.7547 0.65625,0.9375 -0.0199,0.1821 0.15238,0.1372 0.375,0.2188 0.22294,0.081 1.17083,-0.1812 1.3125,-0.3438 0.14198,-0.1621 0.36191,-0.6738 0.625,-0.9375 0.26341,-0.2638 0.80979,-0.6958 1.09375,-1 0.28333,-0.3042 0.57351,-0.5837 0.59375,-0.9687 0.0196,-0.3856 -0.20301,-1.2331 0,-1.375 0.20301,-0.142 0.48417,-0.3614 0.6875,-0.625 0.2027,-0.2633 0.63362,-0.2426 0.9375,-1.0938 0.3042,-0.8513 0.40446,-1.1155 0.34375,-1.1562 -0.0601,-0.041 -0.54342,0.1598 -0.625,0.2812 -0.081,0.1218 -0.55474,0.152 -0.65625,0.25 -0.10119,0.098 -0.5625,0 -0.5625,0 0,0 0.19494,-0.7679 0.0937,-1.0312 -0.10151,-0.2632 -0.61903,-1.2915 -0.78125,-1.6563 -0.13313,-0.2991 -0.15636,-0.6455 -0.0937,-0.875 0.0259,0.037 0.0423,0.058 0.0625,0.094 0.0718,0.1295 0.46088,0.5897 0.625,1.0625 0.35069,1.0135 0.75,1.75 0.75,1.75 0,0 0.52811,0.02 1.40625,-0.6563 0.59766,-0.4594 1.23655,-0.4832 1.34375,-0.7187 0.2027,-0.4462 -0.625,-0.8438 -0.625,-0.8438 l -0.75,0 -0.5625,-0.9687 0.15625,-0.062 c 0,0 0.62292,0.7187 0.90625,0.7187 0.28333,0 1.03808,-0.065 1.28125,0.2188 0.24317,0.2837 1.00326,0.7633 1.125,1.25 0.12206,0.4862 0.0602,1.1658 0.28125,1.4062 0.31116,0.3382 0.59375,0.3125 0.59375,0.3125 l 0.375,-0.875 0.875,-1 0.625,-0.3125 c 2e-5,-0.01 0,-0.021 0,-0.031 0.0161,-0.16 0.0225,-0.3114 0.0312,-0.4688 -0.23975,-4.6223 -2.88721,-8.611 -6.71875,-10.7187 z m -14.21875,1.125 c -1.23399,0.9564 -2.27082,2.1351 -3.09375,3.4687 0.23374,-0.4478 0.59375,-0.6875 0.59375,-0.6875 l 0.78125,-0.5625 c 0,0 -0.31196,1.6936 0.0937,1.9375 0.40476,0.2432 0.79342,-0.5069 0.875,-0.75 0.081,-0.2432 0.92556,-1.1699 1.25,-1.6562 0.32444,-0.4867 0.0488,-1.6378 -0.4375,-1.7188 -0.0246,0 -0.0414,-0.023 -0.0625,-0.031 z m -3.09375,3.4687 c -0.96087,1.5571 -1.61281,3.317 -1.84375,5.2188 0.008,-0.01 0.0254,-0.024 0.0312,-0.031 0.64857,-0.8107 2.375,-1.5937 2.375,-1.5937 0,0 0.56992,-0.065 -0.40625,-1.6875 -0.48777,-0.8107 -0.38999,-1.4585 -0.15625,-1.9063 z m 8.59375,-3.4375 c -0.19406,0.019 -0.59375,0.1235 -0.59375,0.4375 l 0,0.5938 c 0,0 -0.12015,0.2138 -0.1875,0.2812 -0.068,0.068 -0.009,0.3785 0.0312,0.5 0.0405,0.1221 0.0625,0.5 0.0625,0.5 0,0 0.19593,0.1028 0.25,0.1563 0.0541,0.053 0.51605,0.1698 0.71875,0.062 0.2027,-0.1077 0.32013,-0.3927 0.46875,-0.4063 0.14862,-0.014 0.0581,-0.013 0.0312,-0.125 -0.0269,-0.1078 0.125,-0.5 0.125,-0.5 l -0.40625,-0.3437 c 0,0 -0.24594,-0.5255 -0.21875,-0.6875 0.0266,-0.1626 -0.20015,-0.4489 -0.1875,-0.4688 0.003,-0.01 -0.0291,-0.01 -0.0937,0 z m -1.0625,1.1875 c -0.055,0.024 -0.16112,0.1569 -0.21875,0.1875 -0.0769,0.039 -0.053,0.1735 -0.0937,0.2813 -0.0405,0.1082 -0.15625,0.5 -0.15625,0.5 l 0.25,0.094 c -6.2e-4,0 0.39702,-0.075 0.4375,-0.1562 0.0326,-0.065 -0.0848,-0.4195 -0.125,-0.5625 -0.01,-0.034 0,-0.062 0,-0.062 l -0.0625,-0.2508 c -0.0102,-0.02 -0.0129,-0.04 -0.0312,-0.031 z m 10.46875,3.4375 c 0.092,0 0.27194,0.064 0.3125,0.094 0.0541,0.041 0.0541,0.5156 0,0.8125 -0.0541,0.2976 0.16905,0.4732 0.25,0.5 0.0816,0.027 0.13891,0.6775 0.125,0.8125 -0.0133,0.1351 -0.39501,0.2367 -0.5,0.25 -0.10467,0.014 -0.54453,0.01 -0.53125,-0.1875 0.0139,-0.1964 -0.0753,-0.837 -0.15625,-1.0938 -0.081,-0.2568 -0.0592,-0.6198 0.0625,-0.6875 0.12175,-0.067 0.375,-0.4687 0.375,-0.4687 0.0102,-0.022 0.0318,-0.03 0.0625,-0.031 z m -19.78125,7.6875 c 0.0301,0.1891 0.0556,0.3762 0.0937,0.5625 0.34634,1.6925 1.03427,3.273 1.96875,4.6563 0.10082,0.1274 0.17825,0.2877 0.28125,0.4062 0.60696,0.6982 1.24546,1.2455 1.8125,1.8125 l 0.59375,-0.875 0.4375,-1.75 -1.0625,-0.6562 -1.21875,-0.4063 -0.8125,-1.9687 c 0,0 -0.88268,-0.7259 -1.53125,-0.9688 -0.20654,-0.078 -0.36301,-0.3832 -0.5625,-0.8125 z m 19.21875,3.375 c -0.0486,0 -0.11908,0.01 -0.1875,0.031 0,0 -0.0285,0.5988 -0.3125,0.7812 -0.28333,0.1825 -0.46875,0.5364 -0.46875,0.7188 0,0.1826 -0.0607,0.3486 0,0.5312 0.0607,0.1824 0.19918,0.333 0.375,0.3125 0.17614,-0.02 0.36577,-0.4003 0.40625,-0.5625 0.0405,-0.1621 0.1917,-0.5117 0.3125,-0.625 0.12175,-0.1125 0.14555,-0.4311 0.125,-0.5937 -0.0174,-0.1417 0.0898,-0.6015 -0.25,-0.5938 z"/></g></svg>